<svg id="visual" viewBox="0 0 1920 1080" width="1920" height="1080" xmlns="http://www.w3.org/2000/svg" xmlns:xlink="http://www.w3.org/1999/xlink" version="1.1"><rect x="0" y="0" width="1920" height="1080" fill="#212121"></rect><defs><linearGradient id="grad1_0" x1="43.8%" y1="100%" x2="100%" y2="0%"><stop offset="14.444444444444446%" stop-color="#fbae3c" stop-opacity="1"></stop><stop offset="85.55555555555554%" stop-color="#fbae3c" stop-opacity="1"></stop></linearGradient></defs><defs><linearGradient id="grad1_1" x1="43.8%" y1="100%" x2="100%" y2="0%"><stop offset="14.444444444444446%" stop-color="#fbae3c" stop-opacity="1"></stop><stop offset="85.55555555555554%" stop-color="#ad7b36" stop-opacity="1"></stop></linearGradient></defs><defs><linearGradient id="grad1_2" x1="43.8%" y1="100%" x2="100%" y2="0%"><stop offset="14.444444444444446%" stop-color="#644c2d" stop-opacity="1"></stop><stop offset="85.55555555555554%" stop-color="#ad7b36" stop-opacity="1"></stop></linearGradient></defs><defs><linearGradient id="grad1_3" x1="43.8%" y1="100%" x2="100%" y2="0%"><stop offset="14.444444444444446%" stop-color="#644c2d" stop-opacity="1"></stop><stop offset="85.55555555555554%" stop-color="#212121" stop-opacity="1"></stop></linearGradient></defs><defs><linearGradient id="grad2_0" x1="0%" y1="100%" x2="56.3%" y2="0%"><stop offset="14.444444444444446%" stop-color="#fbae3c" stop-opacity="1"></stop><stop offset="85.55555555555554%" stop-color="#fbae3c" stop-opacity="1"></stop></linearGradient></defs><defs><linearGradient id="grad2_1" x1="0%" y1="100%" x2="56.3%" y2="0%"><stop offset="14.444444444444446%" stop-color="#ad7b36" stop-opacity="1"></stop><stop offset="85.55555555555554%" stop-color="#fbae3c" stop-opacity="1"></stop></linearGradient></defs><defs><linearGradient id="grad2_2" x1="0%" y1="100%" x2="56.3%" y2="0%"><stop offset="14.444444444444446%" stop-color="#ad7b36" stop-opacity="1"></stop><stop offset="85.55555555555554%" stop-color="#644c2d" stop-opacity="1"></stop></linearGradient></defs><defs><linearGradient id="grad2_3" x1="0%" y1="100%" x2="56.3%" y2="0%"><stop offset="14.444444444444446%" stop-color="#212121" stop-opacity="1"></stop><stop offset="85.55555555555554%" stop-color="#644c2d" stop-opacity="1"></stop></linearGradient></defs><g transform="translate(1920, 1080)"><path d="M-432 0C-428.6 -45.3 -425.1 -90.6 -410.9 -133.5C-396.6 -176.4 -371.4 -216.8 -337.4 -245.1C-303.3 -273.4 -260.4 -289.5 -223.4 -307.4C-186.3 -325.4 -155.2 -345.1 -119 -366.2C-82.7 -387.2 -41.4 -409.6 0 -432L0 0Z" fill="#423627"></path><path d="M-324 0C-321.4 -34 -318.9 -68 -308.1 -100.1C-297.4 -132.3 -278.6 -162.6 -253 -183.8C-227.5 -205 -195.3 -217.1 -167.5 -230.6C-139.7 -244 -116.4 -258.8 -89.2 -274.6C-62 -290.4 -31 -307.2 0 -324L0 0Z" fill="#886332"></path><path d="M-216 0C-214.3 -22.7 -212.6 -45.3 -205.4 -66.7C-198.3 -88.2 -185.7 -108.4 -168.7 -122.6C-151.7 -136.7 -130.2 -144.8 -111.7 -153.7C-93.2 -162.7 -77.6 -172.5 -59.5 -183.1C-41.4 -193.6 -20.7 -204.8 0 -216L0 0Z" fill="#d3943a"></path><path d="M-108 0C-107.1 -11.3 -106.3 -22.7 -102.7 -33.4C-99.1 -44.1 -92.9 -54.2 -84.3 -61.3C-75.8 -68.3 -65.1 -72.4 -55.8 -76.9C-46.6 -81.3 -38.8 -86.3 -29.7 -91.5C-20.7 -96.8 -10.3 -102.4 0 -108L0 0Z" fill="#fbae3c"></path></g><g transform="translate(0, 0)"><path d="M432 0C435.3 50.7 438.7 101.4 410.9 133.5C383 165.6 324 179.2 294.5 214C265 248.7 264.9 304.7 238.6 328.5C212.3 352.2 159.7 343.8 115.6 355.7C71.4 367.6 35.7 399.8 0 432L0 0Z" fill="#423627"></path><path d="M324 0C326.5 38 329 76 308.1 100.1C287.3 124.2 243 134.4 220.9 160.5C198.7 186.5 198.7 228.5 179 246.3C159.2 264.2 119.8 257.9 86.7 266.8C53.6 275.7 26.8 299.8 0 324L0 0Z" fill="#886332"></path><path d="M216 0C217.7 25.3 219.3 50.7 205.4 66.7C191.5 82.8 162 89.6 147.2 107C132.5 124.4 132.5 152.3 119.3 164.2C106.2 176.1 79.9 171.9 57.8 177.8C35.7 183.8 17.9 199.9 0 216L0 0Z" fill="#d3943a"></path><path d="M108 0C108.8 12.7 109.7 25.3 102.7 33.4C95.8 41.4 81 44.8 73.6 53.5C66.2 62.2 66.2 76.2 59.7 82.1C53.1 88.1 39.9 86 28.9 88.9C17.9 91.9 8.9 99.9 0 108L0 0Z" fill="#fbae3c"></path></g></svg>