<svg id="visual" viewBox="0 0 1920 1080" width="1920" height="1080" xmlns="http://www.w3.org/2000/svg" xmlns:xlink="http://www.w3.org/1999/xlink" version="1.1"><rect x="0" y="0" width="1920" height="1080" fill="#212121"></rect><path d="M0 660L45.7 663C91.3 666 182.7 672 274.2 676.5C365.7 681 457.3 684 548.8 699.2C640.3 714.3 731.7 741.7 823 734.5C914.3 727.3 1005.7 685.7 1097 669.2C1188.3 652.7 1279.7 661.3 1371.2 686.2C1462.7 711 1554.3 752 1645.8 745.8C1737.3 739.7 1828.7 686.3 1874.3 659.7L1920 633L1920 1081L1874.3 1081C1828.7 1081 1737.3 1081 1645.8 1081C1554.3 1081 1462.7 1081 1371.2 1081C1279.7 1081 1188.3 1081 1097 1081C1005.7 1081 914.3 1081 823 1081C731.7 1081 640.3 1081 548.8 1081C457.3 1081 365.7 1081 274.2 1081C182.7 1081 91.3 1081 45.7 1081L0 1081Z" fill="#18c3c3"></path><path d="M0 830L45.7 812.2C91.3 794.3 182.7 758.7 274.2 747.2C365.7 735.7 457.3 748.3 548.8 749C640.3 749.7 731.7 738.3 823 740C914.3 741.7 1005.7 756.3 1097 779.3C1188.3 802.3 1279.7 833.7 1371.2 828.5C1462.7 823.3 1554.3 781.7 1645.8 773C1737.3 764.3 1828.7 788.7 1874.3 800.8L1920 813L1920 1081L1874.3 1081C1828.7 1081 1737.3 1081 1645.8 1081C1554.3 1081 1462.7 1081 1371.2 1081C1279.7 1081 1188.3 1081 1097 1081C1005.7 1081 914.3 1081 823 1081C731.7 1081 640.3 1081 548.8 1081C457.3 1081 365.7 1081 274.2 1081C182.7 1081 91.3 1081 45.7 1081L0 1081Z" fill="#16afaf"></path><path d="M0 819L45.7 828.7C91.3 838.3 182.7 857.7 274.2 872C365.7 886.3 457.3 895.7 548.8 880.7C640.3 865.7 731.7 826.3 823 810.8C914.3 795.3 1005.7 803.7 1097 807.2C1188.3 810.7 1279.7 809.3 1371.2 807.2C1462.7 805 1554.3 802 1645.8 820C1737.3 838 1828.7 877 1874.3 896.5L1920 916L1920 1081L1874.3 1081C1828.7 1081 1737.3 1081 1645.8 1081C1554.3 1081 1462.7 1081 1371.2 1081C1279.7 1081 1188.3 1081 1097 1081C1005.7 1081 914.3 1081 823 1081C731.7 1081 640.3 1081 548.8 1081C457.3 1081 365.7 1081 274.2 1081C182.7 1081 91.3 1081 45.7 1081L0 1081Z" fill="#149c9c"></path><path d="M0 925L45.7 932.3C91.3 939.7 182.7 954.3 274.2 951.5C365.7 948.7 457.3 928.3 548.8 914C640.3 899.7 731.7 891.3 823 889.2C914.3 887 1005.7 891 1097 904.2C1188.3 917.3 1279.7 939.7 1371.2 940C1462.7 940.3 1554.3 918.7 1645.8 910.5C1737.3 902.3 1828.7 907.7 1874.3 910.3L1920 913L1920 1081L1874.3 1081C1828.7 1081 1737.3 1081 1645.8 1081C1554.3 1081 1462.7 1081 1371.2 1081C1279.7 1081 1188.3 1081 1097 1081C1005.7 1081 914.3 1081 823 1081C731.7 1081 640.3 1081 548.8 1081C457.3 1081 365.7 1081 274.2 1081C182.7 1081 91.3 1081 45.7 1081L0 1081Z" fill="#128989"></path><path d="M0 976L45.7 979.7C91.3 983.3 182.7 990.7 274.2 996.7C365.7 1002.7 457.3 1007.3 548.8 1008C640.3 1008.7 731.7 1005.3 823 998C914.3 990.7 1005.7 979.3 1097 983C1188.3 986.7 1279.7 1005.3 1371.2 1009.8C1462.7 1014.3 1554.3 1004.7 1645.8 996.3C1737.3 988 1828.7 981 1874.3 977.5L1920 974L1920 1081L1874.3 1081C1828.7 1081 1737.3 1081 1645.8 1081C1554.3 1081 1462.7 1081 1371.2 1081C1279.7 1081 1188.3 1081 1097 1081C1005.7 1081 914.3 1081 823 1081C731.7 1081 640.3 1081 548.8 1081C457.3 1081 365.7 1081 274.2 1081C182.7 1081 91.3 1081 45.7 1081L0 1081Z" fill="#0f7777"></path></svg>