<svg id="visual" viewBox="0 0 1920 1080" width="1920" height="1080" xmlns="http://www.w3.org/2000/svg" xmlns:xlink="http://www.w3.org/1999/xlink" version="1.1"><rect x="0" y="0" width="1920" height="1080" fill="#001220"></rect><path d="M0 357L45.7 363.8C91.3 370.7 182.7 384.3 274.2 396.2C365.7 408 457.3 418 548.8 394.8C640.3 371.7 731.7 315.3 823 305.3C914.3 295.3 1005.7 331.7 1097 342.3C1188.3 353 1279.7 338 1371.2 332.7C1462.7 327.3 1554.3 331.7 1645.8 337.2C1737.3 342.7 1828.7 349.3 1874.3 352.7L1920 356L1920 0L1874.3 0C1828.7 0 1737.3 0 1645.8 0C1554.3 0 1462.7 0 1371.2 0C1279.7 0 1188.3 0 1097 0C1005.7 0 914.3 0 823 0C731.7 0 640.3 0 548.8 0C457.3 0 365.7 0 274.2 0C182.7 0 91.3 0 45.7 0L0 0Z" fill="#0066ff"></path><path d="M0 301L45.7 296.2C91.3 291.3 182.7 281.7 274.2 273.8C365.7 266 457.3 260 548.8 259C640.3 258 731.7 262 823 257.3C914.3 252.7 1005.7 239.3 1097 224.5C1188.3 209.7 1279.7 193.3 1371.2 201.2C1462.7 209 1554.3 241 1645.8 241.5C1737.3 242 1828.7 211 1874.3 195.5L1920 180L1920 0L1874.3 0C1828.7 0 1737.3 0 1645.8 0C1554.3 0 1462.7 0 1371.2 0C1279.7 0 1188.3 0 1097 0C1005.7 0 914.3 0 823 0C731.7 0 640.3 0 548.8 0C457.3 0 365.7 0 274.2 0C182.7 0 91.3 0 45.7 0L0 0Z" fill="#0080ea"></path><path d="M0 178L45.7 175.5C91.3 173 182.7 168 274.2 159.8C365.7 151.7 457.3 140.3 548.8 141.5C640.3 142.7 731.7 156.3 823 147.7C914.3 139 1005.7 108 1097 91.5C1188.3 75 1279.7 73 1371.2 75.3C1462.7 77.7 1554.3 84.3 1645.8 105.7C1737.3 127 1828.7 163 1874.3 181L1920 199L1920 0L1874.3 0C1828.7 0 1737.3 0 1645.8 0C1554.3 0 1462.7 0 1371.2 0C1279.7 0 1188.3 0 1097 0C1005.7 0 914.3 0 823 0C731.7 0 640.3 0 548.8 0C457.3 0 365.7 0 274.2 0C182.7 0 91.3 0 45.7 0L0 0Z" fill="#248ec7"></path></svg>